<svg xmlns="http://www.w3.org/2000/svg" viewBox="0 0 28.14 24.71"><defs><style>.cls-1{fill:#f06;}</style></defs><g id="Capa_2" data-name="Capa 2"><g id="Capa_1-2" data-name="Capa 1"><path class="cls-1" d="M27.81,13.85c-.71,3.32-2.51,6.47-5.07,7.48A8.21,8.21,0,0,1,16.87,21a18.77,18.77,0,0,1-2.75-1.32l-1-.61a15.91,15.91,0,0,1-2-1.56h6.79a8.29,8.29,0,0,0,0-3.64,9,9,0,0,0-3.15-5.16,8.58,8.58,0,0,0-5.55-2A11.66,11.66,0,0,1,10.09,5C11.88,2.34,14.8.17,17.94,0a10,10,0,0,1,8.32,4.31A12.21,12.21,0,0,1,27.81,13.85Z"/><path class="cls-1" d="M17.89,17.47H11.1a9.19,9.19,0,0,1-2.55-3.64,3.39,3.39,0,0,1-.15-.45,8,8,0,0,1-.31-2.45,10.29,10.29,0,0,1,1.07-4.3,8.58,8.58,0,0,1,5.55,2,9,9,0,0,1,3.15,5.16A8.29,8.29,0,0,1,17.89,17.47Z"/><path d="M17.89,17.47a8.29,8.29,0,0,0,0-3.64,9,9,0,0,0-3.15-5.16,8.58,8.58,0,0,0-5.55-2H9A8.69,8.69,0,0,0,2.66,9.25,8.66,8.66,0,0,0,0,15.68a9.54,9.54,0,0,0,.16,1.79,8.79,8.79,0,0,0,2.46,4.58A8.69,8.69,0,0,0,9,24.71a10.45,10.45,0,0,0,4.9-1.24,8,8,0,0,0,3-2.51,18.77,18.77,0,0,1-2.75-1.32l-1-.61A5.92,5.92,0,0,1,9,20.48a4.79,4.79,0,0,1-2.74-.78,3.82,3.82,0,0,1-1.56-2.23ZM6.26,11.71a4.28,4.28,0,0,1,1.83-.78,5.29,5.29,0,0,1,.9-.08,4.34,4.34,0,0,1,2.71.86,4.26,4.26,0,0,1,1.53,2.12H4.72A4.23,4.23,0,0,1,6.26,11.71Z"/></g></g></svg>